<svg height="512" viewBox="0 0 64 64" width="512" xmlns="http://www.w3.org/2000/svg"><g id="floss"><path d="m5 19v38a4 4 0 0 0 4 4h28a4 4 0 0 0 4-4v-38z" fill="#57a4ff"/><path d="m41 19v38a4 4 0 0 1 -4 4h-5a4 4 0 0 0 4-4v-38z" fill="#006df0"/><path d="m38.74 5.82 1.03 3.86-34.77 9.32-1.04-3.86a4 4 0 0 1 2.83-4.9l27.05-7.25a4 4 0 0 1 4.9 2.83z" fill="#57a4ff"/><path d="m39.77 9.68-34.77 9.32-.27-1 31.04-8.32-1.03-3.86a3.972 3.972 0 0 0 -2.04-2.52l1.14-.31a4 4 0 0 1 4.9 2.83z" fill="#006df0"/><path d="m25 19h8a4 4 0 0 1 -4 4h-12a4 4 0 0 1 -4-4z" fill="#e0e0e2"/><path d="m37 35v.88a23.94 23.94 0 0 1 -1.37 8l-4.19 11.83a1.907 1.907 0 0 1 -3.69-.33l-2.88-7.52a2 2 0 0 0 -3.74 0l-2.88 7.52a1.907 1.907 0 0 1 -3.69.33l-4.19-11.83a23.94 23.94 0 0 1 -1.37-8v-.88a6 6 0 0 1 6-6h4c2.21 0 4 4 4 4s1.79-4 4-4h4a6 6 0 0 1 6 6z" fill="#ebe5dd"/><path d="m37 35v.88a23.94 23.94 0 0 1 -1.37 8l-4.19 11.83a1.907 1.907 0 0 1 -3.69-.33l-.1-.26 3.98-11.24a23.94 23.94 0 0 0 1.37-8v-.88a6.009 6.009 0 0 0 -6-6h4a6.009 6.009 0 0 1 6 6z" fill="#c0ab91"/><path d="m31 28h-4c-1.737 0-3.141 1.612-4 2.935-.859-1.323-2.263-2.935-4-2.935h-4a7.008 7.008 0 0 0 -7 7v.882a24.937 24.937 0 0 0 1.43 8.334l4.181 11.824a2.908 2.908 0 0 0 5.6-.394l2.851-7.424a1 1 0 0 1 1.868 0l2.851 7.424a2.908 2.908 0 0 0 5.6.4l4.189-11.83a24.937 24.937 0 0 0 1.43-8.334v-.882a7.008 7.008 0 0 0 -7-7zm5 7.882a22.942 22.942 0 0 1 -1.315 7.667l-4.185 11.839a.909.909 0 0 1 -1.757-.159 1.1 1.1 0 0 0 -.055-.208l-2.888-7.516a3 3 0 0 0 -5.6 0l-2.886 7.516a1.1 1.1 0 0 0 -.055.208.908.908 0 0 1 -1.759.151l-4.185-11.831a22.942 22.942 0 0 1 -1.315-7.667v-.882a5.006 5.006 0 0 1 5-5h4c1.059 0 2.469 2.035 3.088 3.41a1 1 0 0 0 1.824 0c.619-1.375 2.029-3.41 3.088-3.41h4a5.006 5.006 0 0 1 5 5z"/><path d="m31 32h-1v2h1a1 1 0 0 1 1 1v1h2v-1a3 3 0 0 0 -3-3z"/><path d="m23 36c-1.121 0-3-.26-3-2h-2c0 1.845 1.31 4 5 4s5-2.155 5-4h-2c0 1.74-1.879 2-3 2z"/><path d="m58 52v1.5a5.484 5.484 0 0 1 -5.33 5.5 5.342 5.342 0 0 1 -3.87-1.55 5.944 5.944 0 0 1 -1.8-4.23v-18.22a9.014 9.014 0 0 1 9-9 6 6 0 0 0 6-5.78 5.817 5.817 0 0 0 -1.68-4.27 6.35 6.35 0 0 0 -4.56-1.95h-17.92a23.077 23.077 0 0 0 -11.41 3.03l-1.7.97h-12.13l27.43-7.35a1 1 0 0 0 .71-1.23l-1.04-3.86a5.009 5.009 0 0 0 -6.12-3.54l-27.05 7.25a5.009 5.009 0 0 0 -3.53 6.13l1 3.73v37.87a5 5 0 0 0 5 5h28a5 5 0 0 0 5-5v-38a1 1 0 0 0 -1-1h-12.08a20.946 20.946 0 0 1 8.92-2h17.92a4.354 4.354 0 0 1 3.12 1.34 3.845 3.845 0 0 1 1.12 2.81 3.981 3.981 0 0 1 -4 3.85 11.007 11.007 0 0 0 -11 11v18.22a7.957 7.957 0 0 0 2.41 5.67 7.32 7.32 0 0 0 5.1 2.11h.22a7.5 7.5 0 0 0 7.27-7.5v-1.5a2.006 2.006 0 0 1 2-2v-2a4 4 0 0 0 -4 4zm-53.07-37.12a2.975 2.975 0 0 1 .3-2.28 3.013 3.013 0 0 1 1.82-1.4l27.05-7.24a2.962 2.962 0 0 1 3.67 2.12l.78 2.9-32.84 8.8zm28.97 5.12h6.1v37a3.009 3.009 0 0 1 -3 3h-28a3.009 3.009 0 0 1 -3-3v-37h6.1a5.017 5.017 0 0 0 4.9 4h12a5.017 5.017 0 0 0 4.9-4zm-2.08 0a3.01 3.01 0 0 1 -2.82 2h-12a3.01 3.01 0 0 1 -2.82-2z"/><path d="m44 8h2v-2h2v-2h-2v-2h-2v2h-2v2h2z"/><path d="m48 8v2h2v2h2v-2h2v-2h-2v-2h-2v2z"/><path d="m54 56v-2h2v-2h-2v-2h-2v2h-2v2h2v2z"/><path d="m60 41v-2h-2v2h-2v2h2v2h2v-2h2v-2z"/></g></svg>