<svg height="512" viewBox="0 0 512 512" width="512" xmlns="http://www.w3.org/2000/svg" xmlns:xlink="http://www.w3.org/1999/xlink"><linearGradient id="New_Gradient_Swatch_26" gradientUnits="userSpaceOnUse" x1="260.686" x2="539.314" y1="433.941" y2="155.314"><stop offset="0" stop-color="#e0deda"/><stop offset="1" stop-color="#f7f7f6"/></linearGradient><linearGradient id="New_Gradient_Swatch_11" gradientUnits="userSpaceOnUse" x1="268.686" x2="531.314" y1="441.941" y2="179.314"><stop offset="0" stop-color="#c8def5"/><stop offset=".934" stop-color="#e2edfa"/><stop offset="1" stop-color="#e4eefa"/></linearGradient><linearGradient id="New_Gradient_Swatch_24" gradientUnits="userSpaceOnUse" x1="332" x2="468" y1="252" y2="116"><stop offset="0" stop-color="#76ace7"/><stop offset="1" stop-color="#a3c7ef"/></linearGradient><linearGradient id="New_Gradient_Swatch_24-2" x1="324.686" x2="475.314" xlink:href="#New_Gradient_Swatch_24" y1="497.941" y2="347.314"/><linearGradient id="New_Gradient_Swatch_33" gradientUnits="userSpaceOnUse" x1="372" x2="428" y1="68" y2="12"><stop offset="0" stop-color="#b6d474"/><stop offset="1" stop-color="#d8e8b5"/></linearGradient><linearGradient id="New_Gradient_Swatch_26-2" x1="99.992" x2="252.008" xlink:href="#New_Gradient_Swatch_26" y1="468.024" y2="316.008"/><linearGradient id="New_Gradient_Swatch_11-2" x1="113.083" x2="238.917" xlink:href="#New_Gradient_Swatch_11" y1="481.115" y2="355.281"/><g id="_21-mouth_wash" data-name="21-mouth wash"><g id="filled"><path d="m496 224v-80l-64-48v-48h-64v48l-64 48v80l32 32v80l-32 32v96a32 32 0 0 0 32 32h128a32 32 0 0 0 32-32v-96l-32-32v-80z" fill="url(#New_Gradient_Swatch_26)"/><path d="m304 368v96a32 32 0 0 0 32 32h128a32 32 0 0 0 32-32v-96l-32-32v-80l32-32v-80h-192v80l32 32v80z" fill="url(#New_Gradient_Swatch_11)"/><path d="m304 144h192v80h-192z" fill="url(#New_Gradient_Swatch_24)"/><path d="m304 368h192a0 0 0 0 1 0 0v96a32 32 0 0 1 -32 32h-128a32 32 0 0 1 -32-32v-96a0 0 0 0 1 0 0z" fill="url(#New_Gradient_Swatch_24-2)"/><path d="m368 16h64v48h-64z" fill="url(#New_Gradient_Swatch_33)"/><path d="m210.777 496h-69.554a32 32 0 0 1 -31.869-29.1l-13.354-146.9h160l-13.354 146.9a32 32 0 0 1 -31.869 29.1z" fill="url(#New_Gradient_Swatch_26-2)"/><path d="m100.364 368 8.99 98.9a32 32 0 0 0 31.869 29.1h69.554a32 32 0 0 0 31.869-29.1l8.99-98.9z" fill="url(#New_Gradient_Swatch_11-2)"/><path d="m504.485 232.485c6.932-.746 2.23-83.64 3.517-88.484a12.134 12.134 0 0 0 -4.8-9.6l-59.202-44.401v-74a12 12 0 0 0 -12-12h-64a12 12 0 0 0 -12 12v74l-59.2 44.4a12.127 12.127 0 0 0 -4.8 9.6c1.31 5.17-3.458 87.408 3.515 88.485l28.485 28.486v70.058l-28.485 28.486a12.083 12.083 0 0 0 -3.515 8.485v96a44.049 44.049 0 0 0 44 44h128a44.049 44.049 0 0 0 44-44v-96a12.083 12.083 0 0 0 -3.515-8.485l-28.485-28.486v-70.058zm-48.97 112 11.514 11.515h-134.058l11.514-11.515a12 12 0 0 0 3.515-8.485v-80a12 12 0 0 0 -3.515-8.485l-11.514-11.515h134.058l-11.514 11.515a12 12 0 0 0 -3.515 8.485v80a12 12 0 0 0 3.515 8.485zm-139.515-132.485v-56h168v56zm64-184h40v24h-40zm-4.8 77.6a12 12 0 0 0 4.8-9.6v-20h40v20a12 12 0 0 0 4.8 9.6l35.2 26.4h-120zm108.8 358.4a20.023 20.023 0 0 1 -20 20h-128a20.023 20.023 0 0 1 -20-20v-84h168z"/><path d="m256 308h-160a12.074 12.074 0 0 0 -11.951 13.086l13.351 146.898a43.785 43.785 0 0 0 23.7 35.209 44.269 44.269 0 0 0 20.123 4.807h69.554a43.819 43.819 0 0 0 43.823-40.016l13.355-146.9a12.074 12.074 0 0 0 -11.955-13.084zm-13.141 24-2.181 24h-129.356l-2.181-24zm-101.636 152a19.9 19.9 0 0 1 -19.918-18.189l-7.805-85.811h125l-7.8 85.811a19.9 19.9 0 0 1 -19.923 18.189z"/><circle cx="196" cy="420" r="12"/><circle cx="156" cy="404" r="12"/><circle cx="148" cy="260" r="12"/><circle cx="180" cy="212" r="12"/><circle cx="212" cy="284" r="12"/><circle cx="156" cy="452" r="12"/></g></g></svg>