<svg height="480pt" viewBox="0 -88 480 480" width="480pt" xmlns="http://www.w3.org/2000/svg"><path d="m312 48c0-26.511719-17.910156-48-40-48-13.105469 0-24.703125 7.601562-32 19.289062-7.296875-11.6875-18.894531-19.289062-32-19.289062-22.089844 0-40 21.488281-40 48 0 19.734375 9.9375 36.671875 24.121094 44.046875.304687 19.65625 3.09375 39.199219 8.496094 58.121094l5.488281 19.222656c1.125 3.914063 4.703125 6.609375 8.773437 6.609375 5.042969 0 9.121094-4.078125 9.121094-9.121094v-38.878906c0-8.839844 7.160156-16 16-16s16 7.160156 16 16v38.878906c0 5.042969 4.078125 9.121094 9.121094 9.121094 4.070312 0 7.648437-2.695312 8.765625-6.617188l5.488281-19.222656c5.402344-18.914062 8.199219-38.457031 8.496094-58.121094 14.191406-7.367187 24.128906-24.304687 24.128906-44.039062zm0 0" fill="#b8cbd9"/><path d="m266.574219.480469c-10.847657 1.777343-20.300781 8.765625-26.574219 18.808593-7.296875-11.6875-18.894531-19.289062-32-19.289062-22.089844 0-40 21.488281-40 48 0 19.734375 9.9375 36.671875 24.121094 44.046875.246094 16.488281 2.367187 32.875 6.199218 48.898437 9.144532-2.457031 17.757813-6.351562 25.679688-11.511718v-1.433594c0-8.839844 7.160156-16 16-16 1.304688 0 2.550781.199219 3.761719.488281 17.4375-19.550781 28.238281-46.601562 28.238281-76.488281 0-12.464844-1.96875-24.382812-5.425781-35.519531zm0 0" fill="#e8eff4"/><path d="m0 192h136c20.078125 0 38.929688 9.695312 50.601562 26.039062l2.796876 3.921876c11.671874 16.34375 30.523437 26.039062 50.601562 26.039062s38.929688-9.695312 50.601562-26.039062l2.796876-3.921876c11.671874-16.34375 30.523437-26.039062 50.601562-26.039062h136v96c0 8.839844-7.160156 16-16 16h-448c-8.839844 0-16-7.160156-16-16zm0 0" fill="#eba9a9"/><path d="m480 128c0-26.511719-17.910156-48-40-48-13.105469 0-24.703125 7.601562-32 19.289062-7.296875-11.6875-18.894531-19.289062-32-19.289062-22.089844 0-40 21.488281-40 48 0 19.734375 9.9375 36.671875 24.121094 44.046875.304687 19.65625 3.09375 39.199219 8.496094 58.121094l5.488281 19.222656c1.125 3.914063 4.703125 6.609375 8.773437 6.609375 5.042969 0 9.121094-4.078125 9.121094-9.121094v-38.878906c0-8.839844 7.160156-16 16-16s16 7.160156 16 16v38.878906c0 5.042969 4.078125 9.121094 9.121094 9.121094 4.070312 0 7.648437-2.695312 8.765625-6.617188l5.488281-19.222656c5.402344-18.914062 8.199219-38.457031 8.496094-58.121094 14.191406-7.367187 24.128906-24.304687 24.128906-44.039062zm0 0" fill="#b8cbd9"/><path d="m434.574219 80.480469c-10.847657 1.777343-20.300781 8.765625-26.574219 18.808593-7.296875-11.6875-18.894531-19.289062-32-19.289062-22.089844 0-40 21.488281-40 48 0 19.734375 9.9375 36.671875 24.121094 44.046875.246094 16.488281 2.367187 32.875 6.199218 48.898437 9.144532-2.457031 17.757813-6.351562 25.679688-11.511718v-1.433594c0-8.839844 7.160156-16 16-16 1.304688 0 2.550781.199219 3.761719.488281 17.4375-19.550781 28.238281-46.601562 28.238281-76.488281 0-12.464844-1.96875-24.382812-5.425781-35.519531zm0 0" fill="#e8eff4"/><path d="m144 128c0-26.511719-17.910156-48-40-48-13.105469 0-24.703125 7.601562-32 19.289062-7.296875-11.6875-18.894531-19.289062-32-19.289062-22.089844 0-40 21.488281-40 48 0 19.734375 9.9375 36.671875 24.121094 44.046875.304687 19.65625 3.09375 39.199219 8.496094 58.121094l5.488281 19.222656c1.125 3.914063 4.703125 6.609375 8.773437 6.609375 5.042969 0 9.121094-4.078125 9.121094-9.121094v-38.878906c0-8.839844 7.160156-16 16-16s16 7.160156 16 16v38.878906c0 5.042969 4.078125 9.121094 9.121094 9.121094 4.070312 0 7.648437-2.695312 8.765625-6.617188l5.488281-19.222656c5.402344-18.914062 8.199219-38.457031 8.496094-58.121094 14.191406-7.367187 24.128906-24.304687 24.128906-44.039062zm0 0" fill="#b8cbd9"/><path d="m98.574219 80.480469c-10.847657 1.777343-20.300781 8.765625-26.574219 18.808593-7.296875-11.6875-18.894531-19.289062-32-19.289062-22.089844 0-40 21.488281-40 48 0 19.734375 9.9375 36.671875 24.121094 44.046875.246094 16.488281 2.367187 32.875 6.199218 48.898437 9.144532-2.457031 17.757813-6.351562 25.679688-11.511718v-1.433594c0-8.839844 7.160156-16 16-16 1.304688 0 2.550781.199219 3.761719.488281 17.4375-19.550781 28.238281-46.601562 28.238281-76.488281 0-12.464844-1.96875-24.382812-5.425781-35.519531zm0 0" fill="#e8eff4"/><path d="m269.65625 45.65625-11.3125-11.3125-18.34375 18.34375-18.34375-18.34375-11.3125 11.3125 18.34375 18.34375-18.34375 18.34375 11.3125 11.3125 18.34375-18.34375 18.34375 18.34375 11.3125-11.3125-18.34375-18.34375zm0 0" fill="#e4725f"/></svg>