<svg id="Capa_1" enable-background="new 0 0 512 512" height="512" viewBox="0 0 512 512" width="512" xmlns="http://www.w3.org/2000/svg"><g><path d="m95 170h-10c-46.869 0-85-38.131-85-85 0-8.284 6.716-15 15-15 8.271 0 15-6.729 15-15 0-24.813 20.187-45 45-45h20c8.284 0 15 6.716 15 15v130c0 8.284-6.716 15-15 15z" fill="#92d2ff"/><g><path d="m.159 90c2.599 44.549 39.651 80 84.841 80h10c8.284 0 15-6.716 15-15v-65z" fill="#7898f2"/></g><g><path d="m497 512h-240c-8.284 0-15-6.716-15-15v-60c0-8.284 6.716-15 15-15h240c8.284 0 15 6.716 15 15v60c0 8.284-6.716 15-15 15z" fill="#f0f9ff"/><path d="m497 422h-120v90h120c8.284 0 15-6.716 15-15v-60c0-8.284-6.716-15-15-15z" fill="#d2e6fb"/><path d="m417 90h-80c-8.284 0-15-6.716-15-15v-60c0-8.284 6.716-15 15-15h80c8.284 0 15 6.716 15 15v60c0 8.284-6.716 15-15 15z" fill="#453d81"/><g><path d="m432 75v-60c0-8.284-6.716-15-15-15h-40v90h40c8.284 0 15-6.716 15-15z" fill="#2e2654"/></g><path d="m478.523 125.397-46.523-55.828h-110l-46.523 55.828c-3.726 4.471-4.529 10.694-2.061 15.965 2.469 5.271 7.764 8.638 13.584 8.638h180c5.82 0 11.115-3.367 13.584-8.638 2.469-5.27 1.665-11.493-2.061-15.965z" fill="#f0f9ff"/><path d="m480.584 141.362c2.469-5.271 1.665-11.494-2.061-15.965l-46.523-55.828h-55v80.431h90c5.82 0 11.115-3.367 13.584-8.638z" fill="#d2e6fb"/><path d="m481.927 133.517h-209.854l-29.993 301.934h269.84z" fill="#92d2ff"/><path d="m481.927 133.517h-104.927v301.934h134.92z" fill="#7898f2"/><path d="m377 361c-30.841 0-55-32.944-55-75s24.159-75 55-75 55 32.944 55 75-24.159 75-55 75z" fill="#f0f9ff"/><g><g><path d="m432 286c0-42.056-24.159-75-55-75v150c30.841 0 55-32.944 55-75z" fill="#d2e6fb"/></g></g></g><g><path d="m155 180h-60c-8.284 0-15-6.716-15-15v-150c0-8.284 6.716-15 15-15h60c8.284 0 15 6.716 15 15v150c0 8.284-6.716 15-15 15z" fill="#f0f9ff"/><g><path d="m80 90v75c0 8.284 6.716 15 15 15h60c8.284 0 15-6.716 15-15v-75z" fill="#d2e6fb"/></g><path d="m80 40h90v30h-90z" fill="#d2e6fb"/><path d="m80 110h90v30h-90z" fill="#afc5e6"/><path d="m170 0h-15v188.244l-33.426 41.784c-4.256 5.32-6.574 11.93-6.574 18.742v248.23c0 8.284 6.716 15 15 15h30c8.284 0 15-6.716 15-15v-237.707l30.14-37.678c6.383-7.979 9.86-17.892 9.86-28.11v-148.505c0-24.853-20.147-45-45-45z" fill="#ff824d"/><g><path d="m155 90v98.244l-33.426 41.784c-4.256 5.32-6.574 11.93-6.574 18.742v248.23c0 8.284 6.716 15 15 15h30c8.284 0 15-6.716 15-15v-237.707l30.14-37.678c6.383-7.979 9.86-17.892 9.86-28.11v-103.505z" fill="#ff465a"/></g></g></g></svg>